<svg id="SvgjsSvg2695" width="1005.5" height="516" xmlns="http://www.w3.org/2000/svg" version="1.1" xmlns:xlink="http://www.w3.org/1999/xlink" xmlns:svgjs="http://svgjs.com/svgjs"><defs id="SvgjsDefs2696"><marker id="SvgjsMarker2723" markerWidth="12" markerHeight="8" refX="9" refY="4" viewBox="0 0 12 8" orient="auto" markerUnits="userSpaceOnUse" stroke-dasharray="0,0"><path id="SvgjsPath2724" d="M0,0 L12,4 L0,8 L0,0" fill="#323232" stroke="#323232" stroke-width="1"></path></marker><marker id="SvgjsMarker2800" markerWidth="12" markerHeight="8" refX="9" refY="4" viewBox="0 0 12 8" orient="auto" markerUnits="userSpaceOnUse" stroke-dasharray="0,0"><path id="SvgjsPath2801" d="M0,0 L12,4 L0,8 L0,0" fill="#323232" stroke="#323232" stroke-width="1"></path></marker><marker id="SvgjsMarker2810" markerWidth="12" markerHeight="8" refX="9" refY="4" viewBox="0 0 12 8" orient="auto" markerUnits="userSpaceOnUse" stroke-dasharray="0,0"><path id="SvgjsPath2811" d="M0,0 L12,4 L0,8 L0,0" fill="#323232" stroke="#323232" stroke-width="1"></path></marker><marker id="SvgjsMarker2855" markerWidth="12" markerHeight="8" refX="3" refY="4" viewBox="0 0 12 8" orient="auto" markerUnits="userSpaceOnUse" stroke-dasharray="0,0"><path id="SvgjsPath2856" d="M12,0 L0,4 L12,8 L12,0" fill="#323232" stroke="#323232" stroke-width="1"></path></marker><marker id="SvgjsMarker2923" markerWidth="12" markerHeight="8" refX="9" refY="4" viewBox="0 0 12 8" orient="auto" markerUnits="userSpaceOnUse" stroke-dasharray="0,0"><path id="SvgjsPath2924" d="M0,0 L12,4 L0,8 L0,0" fill="#323232" stroke="#323232" stroke-width="1"></path></marker><marker id="SvgjsMarker2937" markerWidth="14" markerHeight="10" refX="10" refY="5" viewBox="0 0 14 10" orient="auto" markerUnits="userSpaceOnUse" stroke-dasharray="0,0"><path id="SvgjsPath2938" d="M0,0 L14,5 L0,10 L0,0" fill="#323232" stroke="#323232" stroke-width="1"></path></marker><pattern id="SvgjsPattern2949" x="0" y="0" width="21" height="21" patternUnits="userSpaceOnUse"><image id="SvgjsImage2950" xlink:href="http://cdn.processon.com/635aa5c01e08530a607c6879?e=1666888656&amp;token=trhI0BY8QfVrIGn9nENop6JAc6l5nZuxhjQ62UfM:G7R38043ZeRHFqVh9Vkk7LxMDew=" width="21" height="21" preserveAspectRatio="none" crossOrigin="anonymous" x="0" y="0"></image></pattern><marker id="SvgjsMarker2953" markerWidth="12" markerHeight="8" refX="9" refY="4" viewBox="0 0 12 8" orient="auto" markerUnits="userSpaceOnUse" stroke-dasharray="0,0"><path id="SvgjsPath2954" d="M0,0 L12,4 L0,8 L0,0" fill="#323232" stroke="#323232" stroke-width="1"></path></marker><marker id="SvgjsMarker2957" markerWidth="12" markerHeight="8" refX="9" refY="4" viewBox="0 0 12 8" orient="auto" markerUnits="userSpaceOnUse" stroke-dasharray="0,0"><path id="SvgjsPath2958" d="M0,0 L12,4 L0,8 L0,0" fill="#323232" stroke="#323232" stroke-width="1"></path></marker><marker id="SvgjsMarker2961" markerWidth="12" markerHeight="8" refX="9" refY="4" viewBox="0 0 12 8" orient="auto" markerUnits="userSpaceOnUse" stroke-dasharray="0,0"><path id="SvgjsPath2962" d="M0,0 L12,4 L0,8 L0,0" fill="#323232" stroke="#323232" stroke-width="1"></path></marker><pattern id="SvgjsPattern2965" x="0" y="0" width="166" height="114.5" patternUnits="userSpaceOnUse"><image id="SvgjsImage2966" xlink:href="https://cdn.processon.com/6358aaa20e3e747a6fce4d8c?e=1666758835&amp;amp;token=trhI0BY8QfVrIGn9nENop6JAc6l5nZuxhjQ62UfM:F21M9a2Uk-YkngbwuV3ZwAkwyqg=" width="166" height="114.5" preserveAspectRatio="none" crossOrigin="anonymous" x="0" y="0"></image></pattern><pattern id="SvgjsPattern2969" x="0" y="0" width="175" height="115.00000000000011" patternUnits="userSpaceOnUse"><image id="SvgjsImage2970" xlink:href="https://cdn.processon.com/6358aaeff346fb152d7b060d?e=1666758911&amp;amp;token=trhI0BY8QfVrIGn9nENop6JAc6l5nZuxhjQ62UfM:B_zpNoY8-nmroMBjQDLDPrUoB-I=" width="175" height="115.00000000000011" preserveAspectRatio="none" crossOrigin="anonymous" x="0" y="0"></image></pattern><marker id="SvgjsMarker2973" markerWidth="12" markerHeight="8" refX="9" refY="4" viewBox="0 0 12 8" orient="auto" markerUnits="userSpaceOnUse" stroke-dasharray="0,0"><path id="SvgjsPath2974" d="M0,0 L12,4 L0,8 L0,0" fill="#323232" stroke="#323232" stroke-width="1"></path></marker></defs><g id="SvgjsG2697" transform="translate(556,85)"><path id="SvgjsPath2698" d="M 0 4Q 0 0 4 0L 214 0Q 218 0 218 4L 218 256Q 218 260 214 260L 4 260Q 0 260 0 256Z" stroke="rgba(50,50,50,1)" stroke-width="1" fill-opacity="1" fill="#f5f5f5"></path><g id="SvgjsG2699"><text id="SvgjsText2700" font-family="微软雅黑" text-anchor="middle" font-size="13px" width="198px" fill="#323232" font-weight="400" align="middle" lineHeight="125%" anchor="middle" family="微软雅黑" size="13px" weight="400" font-style="" opacity="1" y="119.375" transform="rotate(0)"></text></g></g><g id="SvgjsG2701" transform="translate(578.75,157)"><path id="SvgjsPath2702" d="M 0 4Q 0 0 4 0L 176.5 0Q 180.5 0 180.5 4L 180.5 124.5Q 180.5 128.5 176.5 128.5L 4 128.5Q 0 128.5 0 124.5Z" stroke="rgba(50,50,50,1)" stroke-width="1" fill-opacity="1" fill="#ffffff"></path><g id="SvgjsG2703"><text id="SvgjsText2704" font-family="微软雅黑" text-anchor="middle" font-size="13px" width="161px" fill="#323232" font-weight="400" align="middle" lineHeight="125%" anchor="middle" family="微软雅黑" size="13px" weight="400" font-style="" opacity="1" y="53.625" transform="rotate(0)"></text></g></g><g id="SvgjsG2705" transform="translate(232,85)"><path id="SvgjsPath2706" d="M 0 4Q 0 0 4 0L 214 0Q 218 0 218 4L 218 256Q 218 260 214 260L 4 260Q 0 260 0 256Z" stroke="rgba(50,50,50,1)" stroke-width="1" fill-opacity="1" fill="#f5f5f5"></path><g id="SvgjsG2707"><text id="SvgjsText2708" font-family="微软雅黑" text-anchor="middle" font-size="13px" width="198px" fill="#323232" font-weight="400" align="middle" lineHeight="125%" anchor="middle" family="微软雅黑" size="13px" weight="400" font-style="" opacity="1" y="119.375" transform="rotate(0)"></text></g></g><g id="SvgjsG2709" transform="translate(248.5,104.5)"><path id="SvgjsPath2710" d="M 0 4Q 0 0 4 0L 181.5 0Q 185.5 0 185.5 4L 185.5 124.5Q 185.5 128.5 181.5 128.5L 4 128.5Q 0 128.5 0 124.5Z" stroke="rgba(50,50,50,1)" stroke-width="1" fill-opacity="1" fill="#ffffff"></path><g id="SvgjsG2711"><text id="SvgjsText2712" font-family="微软雅黑" text-anchor="middle" font-size="13px" width="166px" fill="#323232" font-weight="400" align="middle" lineHeight="125%" anchor="middle" family="微软雅黑" size="13px" weight="400" font-style="" opacity="1" y="53.625" transform="rotate(0)"></text></g></g><g id="SvgjsG2713" transform="matrix(-1.8369701987210297e-16,-1,1,-1.8369701987210297e-16,313,473)"><path id="SvgjsPath2714" d="M 0 0L 100 0L 83.33333333333333 70L 16.666666666666668 70L 0 0Z" stroke="rgba(255,152,0,1)" stroke-width="2" fill-opacity="1" fill="#ffb74d"></path><g id="SvgjsG2715"><text id="SvgjsText2716" font-family="微软雅黑" text-anchor="middle" font-size="13px" width="80px" fill="#323232" font-weight="400" align="middle" lineHeight="125%" anchor="middle" family="微软雅黑" size="13px" weight="400" font-style="" opacity="1" y="24.375" transform="rotate(0)"></text></g></g><g id="SvgjsG2717" transform="matrix(6.123233995736766e-17,1,-1,6.123233995736766e-17,704,373)"><path id="SvgjsPath2718" d="M 0 0L 100 0L 83.33333333333333 70L 16.666666666666668 70L 0 0Z" stroke="rgba(76,175,80,1)" stroke-width="2" fill-opacity="1" fill="#81c784"></path><g id="SvgjsG2719"><text id="SvgjsText2720" font-family="微软雅黑" text-anchor="middle" font-size="13px" width="80px" fill="#323232" font-weight="400" align="middle" lineHeight="125%" anchor="middle" family="微软雅黑" size="13px" weight="400" font-style="" opacity="1" y="24.375" transform="rotate(0)"></text></g></g><g id="SvgjsG2721"><path id="SvgjsPath2722" d="M384 423L508.5 423L508.5 423L631.7 423" stroke="#323232" stroke-width="1" fill="none" marker-end="url(#SvgjsMarker2723)"></path></g><g id="SvgjsG2725" transform="translate(259.25,307)"><path id="SvgjsPath2726" d="M 0 4Q 0 0 4 0L 160 0Q 164 0 164 4L 164 26Q 164 30 160 30L 4 30Q 0 30 0 26Z" stroke="rgba(50,50,50,1)" stroke-width="1" fill-opacity="1" fill="#e1bee7"></path><g id="SvgjsG2727"><text id="SvgjsText2728" font-family="微软雅黑" text-anchor="middle" font-size="13px" width="144px" fill="#323232" font-weight="700" align="middle" lineHeight="125%" anchor="middle" family="微软雅黑" size="13px" weight="700" font-style="" opacity="1" y="4.375" transform="rotate(0)"><tspan id="SvgjsTspan2729" dy="16" x="82"><tspan id="SvgjsTspan2730" style="text-decoration:;">Input Layer</tspan></tspan></text></g></g><g id="SvgjsG2731" transform="translate(256.75,255)"><path id="SvgjsPath2732" d="M 0 4Q 0 0 4 0L 165 0Q 169 0 169 4L 169 26Q 169 30 165 30L 4 30Q 0 30 0 26Z" stroke="rgba(50,50,50,1)" stroke-width="1" fill-opacity="1" fill="#ffcdd2"></path><g id="SvgjsG2733"><text id="SvgjsText2734" font-family="微软雅黑" text-anchor="middle" font-size="13px" width="149px" fill="#323232" font-weight="700" align="middle" lineHeight="125%" anchor="middle" family="微软雅黑" size="13px" weight="700" font-style="" opacity="1" y="4.375" transform="rotate(0)"><tspan id="SvgjsTspan2735" dy="16" x="84.5"><tspan id="SvgjsTspan2736" style="text-decoration:;">Pos Encoding</tspan></tspan></text></g></g><g id="SvgjsG2737" transform="translate(265,181)"><path id="SvgjsPath2738" d="M 0 4Q 0 0 4 0L 119 0Q 123 0 123 4L 123 37Q 123 41 119 41L 4 41Q 0 41 0 37Z" stroke="rgba(50,50,50,1)" stroke-width="1" fill-opacity="1" fill="#fff9c4"></path><g id="SvgjsG2739"><text id="SvgjsText2740" font-family="微软雅黑" text-anchor="middle" font-size="13px" width="103px" fill="#323232" font-weight="700" align="middle" lineHeight="125%" anchor="middle" family="微软雅黑" size="13px" weight="700" font-style="" opacity="1" y="9.875" transform="rotate(0)"><tspan id="SvgjsTspan2741" dy="16" x="61.5"><tspan id="SvgjsTspan2742" style="text-decoration:;">Encoder Layer 1</tspan></tspan></text></g></g><g id="SvgjsG2743" transform="translate(265,124.5)"><path id="SvgjsPath2744" d="M 0 4Q 0 0 4 0L 119 0Q 123 0 123 4L 123 37Q 123 41 119 41L 4 41Q 0 41 0 37Z" stroke="rgba(50,50,50,1)" stroke-width="1" fill-opacity="1" fill="#fff9c4"></path><g id="SvgjsG2745"><text id="SvgjsText2746" font-family="微软雅黑" text-anchor="middle" font-size="13px" width="103px" fill="#323232" font-weight="700" align="middle" lineHeight="125%" anchor="middle" family="微软雅黑" size="13px" weight="700" font-style="" opacity="1" y="9.875" transform="rotate(0)"><tspan id="SvgjsTspan2747" dy="16" x="61.5"><tspan id="SvgjsTspan2748" style="text-decoration:;">Encoder Layer 2</tspan></tspan></text></g></g><g id="SvgjsG2749" transform="translate(292,103)"><path id="SvgjsPath2750" d="M 0 0L 69 0L 69 20L 0 20Z" stroke="none" fill="none"></path><g id="SvgjsG2751"><text id="SvgjsText2752" font-family="微软雅黑" text-anchor="middle" font-size="13px" width="69px" fill="#323232" font-weight="400" align="middle" lineHeight="125%" anchor="middle" family="微软雅黑" size="13px" weight="400" font-style="" opacity="1" y="-0.625" transform="rotate(0)"><tspan id="SvgjsTspan2753" dy="16" x="34.5"><tspan id="SvgjsTspan2754" style="text-decoration:;font-weight: bold;">...</tspan></tspan></text></g></g><g id="SvgjsG2755" transform="translate(392,108.5)"><path id="SvgjsPath2756" d="M 0 113.5Q 7.5 113.5 7.5 104.5L 7.5 65.75Q 7.5 56.75 22 56.75Q 7.5 56.75 7.5 47.75L 7.5 9Q 7.5 0 0 0" stroke="rgba(50,50,50,1)" stroke-width="1" fill="none"></path><path id="SvgjsPath2757" d="M 0 0L 75 0L 75 113.5L 0 113.5Z" stroke="none" fill="none"></path><g id="SvgjsG2758"><text id="SvgjsText2759" font-family="微软雅黑" text-anchor="start" font-size="12px" width="48px" fill="#323232" font-weight="400" align="middle" lineHeight="125%" anchor="start" family="微软雅黑" size="12px" weight="400" font-style="" opacity="1" y="46.75" transform="rotate(0)"></text></g></g><g id="SvgjsG2760" transform="translate(411.5,157)"><path id="SvgjsPath2761" d="M 0 0L 25 0L 25 24L 0 24Z" stroke="none" fill="none"></path><g id="SvgjsG2762"><text id="SvgjsText2763" font-family="微软雅黑" text-anchor="middle" font-size="12px" width="25px" fill="#323232" font-weight="700" align="middle" lineHeight="125%" anchor="middle" family="微软雅黑" size="12px" weight="700" font-style="" opacity="1" y="2" transform="rotate(0)"><tspan id="SvgjsTspan2764" dy="15" x="12.5"><tspan id="SvgjsTspan2765" style="text-decoration:;">*N</tspan></tspan></text></g></g><g id="SvgjsG2766" transform="translate(25,156)"><path id="SvgjsPath2767" d="M 0 4Q 0 0 4 0L 180 0Q 184 0 184 4L 184 172Q 184 176 180 176L 4 176Q 0 176 0 172Z" stroke="rgba(50,50,50,1)" stroke-width="1" fill-opacity="1" fill="#f5f5f5"></path><g id="SvgjsG2768"><text id="SvgjsText2769" font-family="微软雅黑" text-anchor="middle" font-size="13px" width="164px" fill="#323232" font-weight="400" align="middle" lineHeight="125%" anchor="middle" family="微软雅黑" size="13px" weight="400" font-style="" opacity="1" y="77.375" transform="rotate(0)"></text></g></g><g id="SvgjsG2770"><path id="SvgjsPath2771" d="M208.50711552582976 159.77423457819253L266.2748205556831 181.5661631400403" stroke-dasharray="8,5" stroke="#323232" stroke-width="1" fill="none"></path></g><g id="SvgjsG2772" transform="translate(36,291.5)"><path id="SvgjsPath2773" d="M 0 4Q 0 0 4 0L 160 0Q 164 0 164 4L 164 26Q 164 30 160 30L 4 30Q 0 30 0 26Z" stroke="rgba(50,50,50,1)" stroke-width="1" fill-opacity="1" fill="#ffe0b2"></path><g id="SvgjsG2774"><text id="SvgjsText2775" font-family="微软雅黑" text-anchor="middle" font-size="13px" width="144px" fill="#323232" font-weight="700" align="middle" lineHeight="125%" anchor="middle" family="微软雅黑" size="13px" weight="700" font-style="" opacity="1" y="4.375" transform="rotate(0)"><tspan id="SvgjsTspan2776" dy="16" x="82"><tspan id="SvgjsTspan2777" style="text-decoration:;">Co-attention</tspan></tspan></text></g></g><g id="SvgjsG2778" transform="translate(36,250)"><path id="SvgjsPath2779" d="M 0 4Q 0 0 4 0L 160 0Q 164 0 164 4L 164 26Q 164 30 160 30L 4 30Q 0 30 0 26Z" stroke="rgba(50,50,50,1)" stroke-width="1" fill-opacity="1" fill="#c8e6c9"></path><g id="SvgjsG2780"><text id="SvgjsText2781" font-family="微软雅黑" text-anchor="middle" font-size="13px" width="144px" fill="#323232" font-weight="700" align="middle" lineHeight="125%" anchor="middle" family="微软雅黑" size="13px" weight="700" font-style="" opacity="1" y="4.375" transform="rotate(0)"><tspan id="SvgjsTspan2782" dy="16" x="82"><tspan id="SvgjsTspan2783" style="text-decoration:;">Add &amp; Normalize</tspan></tspan></text></g></g><g id="SvgjsG2784" transform="translate(36,208.5)"><path id="SvgjsPath2785" d="M 0 4Q 0 0 4 0L 160 0Q 164 0 164 4L 164 26Q 164 30 160 30L 4 30Q 0 30 0 26Z" stroke="rgba(50,50,50,1)" stroke-width="1" fill-opacity="1" fill="#b2ebf2"></path><g id="SvgjsG2786"><text id="SvgjsText2787" font-family="微软雅黑" text-anchor="middle" font-size="13px" width="144px" fill="#323232" font-weight="700" align="middle" lineHeight="125%" anchor="middle" family="微软雅黑" size="13px" weight="700" font-style="" opacity="1" y="4.375" transform="rotate(0)"><tspan id="SvgjsTspan2788" dy="16" x="82"><tspan id="SvgjsTspan2789" style="text-decoration:;">Feed Forward</tspan></tspan></text></g></g><g id="SvgjsG2790" transform="translate(36,167)"><path id="SvgjsPath2791" d="M 0 4Q 0 0 4 0L 160 0Q 164 0 164 4L 164 26Q 164 30 160 30L 4 30Q 0 30 0 26Z" stroke="rgba(50,50,50,1)" stroke-width="1" fill-opacity="1" fill="#c8e6c9"></path><g id="SvgjsG2792"><text id="SvgjsText2793" font-family="微软雅黑" text-anchor="middle" font-size="13px" width="144px" fill="#323232" font-weight="700" align="middle" lineHeight="125%" anchor="middle" family="微软雅黑" size="13px" weight="700" font-style="" opacity="1" y="4.375" transform="rotate(0)"><tspan id="SvgjsTspan2794" dy="16" x="82"><tspan id="SvgjsTspan2795" style="text-decoration:;">Add &amp; Normalize</tspan></tspan></text></g></g><g id="SvgjsG2796"><path id="SvgjsPath2797" d="M208.6385096339304 328.05951488355294L266.13165504305096 221.01644635138604" stroke-dasharray="8,5" stroke="#323232" stroke-width="1" fill="none"></path></g><g id="SvgjsG2798"><path id="SvgjsPath2799" d="M341 84.5L341 55L503 55L503 215L554.2 215" stroke="#323232" stroke-width="1" fill="none" marker-end="url(#SvgjsMarker2800)"></path></g><g id="SvgjsG2802" transform="translate(358.5,25)"><path id="SvgjsPath2803" d="M 0 0L 123 0L 123 26L 0 26Z" stroke="none" fill="none"></path><g id="SvgjsG2804"><text id="SvgjsText2805" font-family="微软雅黑" text-anchor="middle" font-size="13px" width="123px" fill="#323232" font-weight="700" align="middle" lineHeight="125%" anchor="middle" family="微软雅黑" size="13px" weight="700" font-style="" opacity="1" y="2.375" transform="rotate(0)"><tspan id="SvgjsTspan2806" dy="16" x="61.5"><tspan id="SvgjsTspan2807" style="text-decoration:;">Encoder output</tspan></tspan></text></g></g><g id="SvgjsG2808"><path id="SvgjsPath2809" d="M341.25 306.5L341.25 296L341.25 296L341.25 286.8" stroke="#323232" stroke-width="1" fill="none" marker-end="url(#SvgjsMarker2810)"></path></g><g id="SvgjsG2812" transform="translate(587,307)"><path id="SvgjsPath2813" d="M 0 4Q 0 0 4 0L 160 0Q 164 0 164 4L 164 26Q 164 30 160 30L 4 30Q 0 30 0 26Z" stroke="rgba(50,50,50,1)" stroke-width="1" fill-opacity="1" fill="#e1bee7"></path><g id="SvgjsG2814"><text id="SvgjsText2815" font-family="微软雅黑" text-anchor="middle" font-size="13px" width="144px" fill="#323232" font-weight="700" align="middle" lineHeight="125%" anchor="middle" family="微软雅黑" size="13px" weight="700" font-style="" opacity="1" y="4.375" transform="rotate(0)"><tspan id="SvgjsTspan2816" dy="16" x="82"><tspan id="SvgjsTspan2817" style="text-decoration:;">Input Layer</tspan></tspan></text></g></g><g id="SvgjsG2818" transform="translate(624,233)"><path id="SvgjsPath2819" d="M 0 4Q 0 0 4 0L 119 0Q 123 0 123 4L 123 37Q 123 41 119 41L 4 41Q 0 41 0 37Z" stroke="rgba(50,50,50,1)" stroke-width="1" fill-opacity="1" fill="#e57373"></path><g id="SvgjsG2820"><text id="SvgjsText2821" font-family="微软雅黑" text-anchor="middle" font-size="13px" width="103px" fill="#323232" font-weight="700" align="middle" lineHeight="125%" anchor="middle" family="微软雅黑" size="13px" weight="700" font-style="" opacity="1" y="9.875" transform="rotate(0)"><tspan id="SvgjsTspan2822" dy="16" x="61.5"><tspan id="SvgjsTspan2823" style="text-decoration:;">Decoder Layer 1</tspan></tspan></text></g></g><g id="SvgjsG2824" transform="translate(624,177.75)"><path id="SvgjsPath2825" d="M 0 4Q 0 0 4 0L 119 0Q 123 0 123 4L 123 37Q 123 41 119 41L 4 41Q 0 41 0 37Z" stroke="rgba(50,50,50,1)" stroke-width="1" fill-opacity="1" fill="#e57373"></path><g id="SvgjsG2826"><text id="SvgjsText2827" font-family="微软雅黑" text-anchor="middle" font-size="13px" width="103px" fill="#323232" font-weight="700" align="middle" lineHeight="125%" anchor="middle" family="微软雅黑" size="13px" weight="700" font-style="" opacity="1" y="9.875" transform="rotate(0)"><tspan id="SvgjsTspan2828" dy="16" x="61.5"><tspan id="SvgjsTspan2829" style="text-decoration:;">Decoder Layer 2</tspan></tspan></text></g></g><g id="SvgjsG2830" transform="translate(650,152.75)"><path id="SvgjsPath2831" d="M 0 0L 69 0L 69 20L 0 20Z" stroke="none" fill="none"></path><g id="SvgjsG2832"><text id="SvgjsText2833" font-family="微软雅黑" text-anchor="middle" font-size="13px" width="69px" fill="#323232" font-weight="400" align="middle" lineHeight="125%" anchor="middle" family="微软雅黑" size="13px" weight="400" font-style="" opacity="1" y="-0.625" transform="rotate(0)"><tspan id="SvgjsTspan2834" dy="16" x="34.5"><tspan id="SvgjsTspan2835" style="text-decoration:;font-weight: bold;">...</tspan></tspan></text></g></g><g id="SvgjsG2836" transform="translate(521.5,165.5)"><path id="SvgjsPath2837" d="M 100 0Q 91 0 91 9L 91 45.25Q 91 54.25 78 54.25Q 91 54.25 91 63.25L 91 99.5Q 91 108.5 100 108.5" stroke="rgba(50,50,50,1)" stroke-width="1" fill="none"></path><path id="SvgjsPath2838" d="M 0 0L 100 0L 100 108.5L 0 108.5Z" stroke="none" fill="none"></path><g id="SvgjsG2839"><text id="SvgjsText2840" font-family="微软雅黑" text-anchor="end" font-size="13px" width="73px" fill="#323232" font-weight="400" align="middle" lineHeight="125%" anchor="end" family="微软雅黑" size="13px" weight="400" font-style="" opacity="1" y="43.625" transform="rotate(0)"></text></g></g><g id="SvgjsG2841" transform="translate(578,209)"><path id="SvgjsPath2842" d="M 0 0L 25 0L 25 24L 0 24Z" stroke="none" fill="none"></path><g id="SvgjsG2843"><text id="SvgjsText2844" font-family="微软雅黑" text-anchor="middle" font-size="12px" width="25px" fill="#323232" font-weight="700" align="middle" lineHeight="125%" anchor="middle" family="微软雅黑" size="12px" weight="700" font-style="" opacity="1" y="2" transform="rotate(0)"><tspan id="SvgjsTspan2845" dy="15" x="12.5"><tspan id="SvgjsTspan2846" style="text-decoration:;">N*</tspan></tspan></text></g></g><g id="SvgjsG2847" transform="translate(587,104.5)"><path id="SvgjsPath2848" d="M 0 4Q 0 0 4 0L 160 0Q 164 0 164 4L 164 26Q 164 30 160 30L 4 30Q 0 30 0 26Z" stroke="rgba(50,50,50,1)" stroke-width="1" fill-opacity="1" fill="#e1bee7"></path><g id="SvgjsG2849"><text id="SvgjsText2850" font-family="微软雅黑" text-anchor="middle" font-size="13px" width="144px" fill="#323232" font-weight="700" align="middle" lineHeight="125%" anchor="middle" family="微软雅黑" size="13px" weight="700" font-style="" opacity="1" y="4.375" transform="rotate(0)"><tspan id="SvgjsTspan2851" dy="16" x="82"><tspan id="SvgjsTspan2852" style="text-decoration:;">Linear Mapping</tspan></tspan></text></g></g><g id="SvgjsG2853"><path id="SvgjsPath2854" d="M669 134.5L669 145.25L669 145.25L669 156" stroke="#323232" stroke-width="1" fill="none" marker-start="url(#SvgjsMarker2855)"></path></g><g id="SvgjsG2857" transform="translate(793.5,88)"><path id="SvgjsPath2858" d="M 0 4Q 0 0 4 0L 182.50543478260875 0Q 186.50543478260875 0 186.50543478260875 4L 186.50543478260875 240Q 186.50543478260875 244 182.50543478260875 244L 4 244Q 0 244 0 240Z" stroke="rgba(50,50,50,1)" stroke-width="1" fill-opacity="1" fill="#f5f5f5"></path><g id="SvgjsG2859"><text id="SvgjsText2860" font-family="微软雅黑" text-anchor="middle" font-size="13px" width="167px" fill="#323232" font-weight="400" align="middle" lineHeight="125%" anchor="middle" family="微软雅黑" size="13px" weight="400" font-style="" opacity="1" y="111.375" transform="rotate(0)"></text></g></g><g id="SvgjsG2861" transform="translate(804.5298913043479,291.5)"><path id="SvgjsPath2862" d="M 0 4Q 0 0 4 0L 160.44565217391303 0Q 164.44565217391303 0 164.44565217391303 4L 164.44565217391303 25.999999999999996Q 164.44565217391303 29.999999999999996 160.44565217391303 29.999999999999996L 4 29.999999999999996Q 0 29.999999999999996 0 25.999999999999996Z" stroke="rgba(50,50,50,1)" stroke-width="1" fill-opacity="1" fill="#ffe0b2"></path><g id="SvgjsG2863"><text id="SvgjsText2864" font-family="微软雅黑" text-anchor="middle" font-size="13px" width="145px" fill="#323232" font-weight="700" align="middle" lineHeight="125%" anchor="middle" family="微软雅黑" size="13px" weight="700" font-style="" opacity="1" y="4.374999999999998" transform="rotate(0)"><tspan id="SvgjsTspan2865" dy="16" x="82.5"><tspan id="SvgjsTspan2866" style="text-decoration:;">Self-attention</tspan></tspan></text></g></g><g id="SvgjsG2867" transform="translate(804.5298913043479,250)"><path id="SvgjsPath2868" d="M 0 4Q 0 0 4 0L 160.44565217391303 0Q 164.44565217391303 0 164.44565217391303 4L 164.44565217391303 25.999999999999996Q 164.44565217391303 29.999999999999996 160.44565217391303 29.999999999999996L 4 29.999999999999996Q 0 29.999999999999996 0 25.999999999999996Z" stroke="rgba(50,50,50,1)" stroke-width="1" fill-opacity="1" fill="#c8e6c9"></path><g id="SvgjsG2869"><text id="SvgjsText2870" font-family="微软雅黑" text-anchor="middle" font-size="13px" width="145px" fill="#323232" font-weight="700" align="middle" lineHeight="125%" anchor="middle" family="微软雅黑" size="13px" weight="700" font-style="" opacity="1" y="4.374999999999998" transform="rotate(0)"><tspan id="SvgjsTspan2871" dy="16" x="82.5"><tspan id="SvgjsTspan2872" style="text-decoration:;">Add &amp; Normalize</tspan></tspan></text></g></g><g id="SvgjsG2873" transform="translate(804.5298913043479,147.75)"><path id="SvgjsPath2874" d="M 0 4Q 0 0 4 0L 160.44565217391303 0Q 164.44565217391303 0 164.44565217391303 4L 164.44565217391303 25.999999999999996Q 164.44565217391303 29.999999999999996 160.44565217391303 29.999999999999996L 4 29.999999999999996Q 0 29.999999999999996 0 25.999999999999996Z" stroke="rgba(50,50,50,1)" stroke-width="1" fill-opacity="1" fill="#b2ebf2"></path><g id="SvgjsG2875"><text id="SvgjsText2876" font-family="微软雅黑" text-anchor="middle" font-size="13px" width="145px" fill="#323232" font-weight="700" align="middle" lineHeight="125%" anchor="middle" family="微软雅黑" size="13px" weight="700" font-style="" opacity="1" y="4.374999999999998" transform="rotate(0)"><tspan id="SvgjsTspan2877" dy="16" x="82.5"><tspan id="SvgjsTspan2878" style="text-decoration:;">Feed Forward</tspan></tspan></text></g></g><g id="SvgjsG2879" transform="translate(804.5298913043479,104.5)"><path id="SvgjsPath2880" d="M 0 4Q 0 0 4 0L 160.44565217391303 0Q 164.44565217391303 0 164.44565217391303 4L 164.44565217391303 25.999999999999996Q 164.44565217391303 29.999999999999996 160.44565217391303 29.999999999999996L 4 29.999999999999996Q 0 29.999999999999996 0 25.999999999999996Z" stroke="rgba(50,50,50,1)" stroke-width="1" fill-opacity="1" fill="#c8e6c9"></path><g id="SvgjsG2881"><text id="SvgjsText2882" font-family="微软雅黑" text-anchor="middle" font-size="13px" width="145px" fill="#323232" font-weight="700" align="middle" lineHeight="125%" anchor="middle" family="微软雅黑" size="13px" weight="700" font-style="" opacity="1" y="4.374999999999998" transform="rotate(0)"><tspan id="SvgjsTspan2883" dy="16" x="82.5"><tspan id="SvgjsTspan2884" style="text-decoration:;">Add &amp; Normalize</tspan></tspan></text></g></g><g id="SvgjsG2885" transform="translate(804.5298913043479,191)"><path id="SvgjsPath2886" d="M 0 4Q 0 0 4 0L 160.445652173913 0Q 164.445652173913 0 164.445652173913 4L 164.445652173913 44Q 164.445652173913 48 160.445652173913 48L 4 48Q 0 48 0 44Z" stroke="rgba(50,50,50,1)" stroke-width="1" fill-opacity="1" fill="#ffe0b2"></path><g id="SvgjsG2887"><text id="SvgjsText2888" font-family="微软雅黑" text-anchor="middle" font-size="13px" width="145px" fill="#323232" font-weight="700" align="middle" lineHeight="125%" anchor="middle" family="微软雅黑" size="13px" weight="700" font-style="" opacity="1" y="4.875" transform="rotate(0)"><tspan id="SvgjsTspan2889" dy="16" x="82.5"><tspan id="SvgjsTspan2890" style="text-decoration:;">Encoder-Decoder</tspan></tspan><tspan id="SvgjsTspan2891" dy="16" x="82.5"><tspan id="SvgjsTspan2892" style="text-decoration:;">Attention</tspan></tspan></text></g></g><g id="SvgjsG2893"><path id="SvgjsPath2894" d="M793.5 91L744.3678532413451 233.08037034622964" stroke-dasharray="8,5" stroke="#323232" stroke-width="1" fill="none"></path></g><g id="SvgjsG2895"><path id="SvgjsPath2896" d="M795.0271247150256 330.67192500418184L746.495743384011 270.8148059386812" stroke-dasharray="8,5" stroke="#323232" stroke-width="1" fill="none"></path></g><g id="SvgjsG2897"><path id="SvgjsPath2898" d="M312.60871842138437 375.7278611186716L239.46141025689943 345.1926150950159" stroke-dasharray="8,5" stroke="#323232" stroke-width="1" fill="none"></path></g><g id="SvgjsG2899"><path id="SvgjsPath2900" d="M382.8630391551803 389.94496258767373L447.0912687928916 344.6899147613102" stroke-dasharray="8,5" stroke="#323232" stroke-width="1" fill="none"></path></g><g id="SvgjsG2901"><path id="SvgjsPath2902" d="M702 373L771.2447037131892 343.9170092826292" stroke-dasharray="8,5" stroke="#323232" stroke-width="1" fill="none"></path></g><g id="SvgjsG2903"><path id="SvgjsPath2904" d="M558.7751101431058 344.27619762806444L633.7722568039161 390.1685202061" stroke-dasharray="8,5" stroke="#323232" stroke-width="1" fill="none"></path></g><g id="SvgjsG2905" transform="translate(319,407.5)"><path id="SvgjsPath2906" d="M 0 0L 56 0L 56 31L 0 31Z" stroke="none" fill="none"></path><g id="SvgjsG2907"><text id="SvgjsText2908" font-family="微软雅黑" text-anchor="middle" font-size="13px" width="56px" fill="#ffffff" font-weight="700" align="middle" lineHeight="125%" anchor="middle" family="微软雅黑" size="13px" weight="700" font-style="" opacity="1" y="4.875" transform="rotate(0)"><tspan id="SvgjsTspan2909" dy="16" x="28"><tspan id="SvgjsTspan2910" style="text-decoration:;">Encoder</tspan></tspan></text></g></g><g id="SvgjsG2911" transform="translate(642,408.5)"><path id="SvgjsPath2912" d="M 0 0L 54 0L 54 29L 0 29Z" stroke="none" fill="none"></path><g id="SvgjsG2913"><text id="SvgjsText2914" font-family="微软雅黑" text-anchor="middle" font-size="13px" width="54px" fill="#ffffff" font-weight="700" align="middle" lineHeight="125%" anchor="middle" family="微软雅黑" size="13px" weight="700" font-style="" opacity="1" y="3.875" transform="rotate(0)"><tspan id="SvgjsTspan2915" dy="16" x="27"><tspan id="SvgjsTspan2916" style="text-decoration:;">Decoder</tspan></tspan></text></g></g><g id="SvgjsG2917" transform="translate(232,355)"><path id="SvgjsPath2918" d="M 0 0L 20 0L 20 136L 0 136Z" stroke="rgba(255,152,0,1)" stroke-width="2" fill-opacity="1" fill="#ffb74d"></path><g id="SvgjsG2919"><text id="SvgjsText2920" font-family="微软雅黑" text-anchor="middle" font-size="13px" width="0px" fill="#323232" font-weight="400" align="middle" lineHeight="125%" anchor="middle" family="微软雅黑" size="13px" weight="400" font-style="" opacity="1" y="57.375" transform="rotate(0)"></text></g></g><g id="SvgjsG2921"><path id="SvgjsPath2922" d="M253 423L310.7 423" stroke="#323232" stroke-width="1" fill="none" marker-end="url(#SvgjsMarker2923)"></path></g><g id="SvgjsG2925" transform="translate(232,413)"><path id="SvgjsPath2926" d="M 0 0L 21 0L 21 20L 0 20Z" stroke="none" fill="none"></path><g id="SvgjsG2927"><text id="SvgjsText2928" font-family="微软雅黑" text-anchor="middle" font-size="13px" width="21px" fill="#ffffff" font-weight="700" align="middle" lineHeight="125%" anchor="middle" family="微软雅黑" size="13px" weight="700" font-style="" opacity="1" y="-0.625" transform="rotate(0)"><tspan id="SvgjsTspan2929" dy="16" x="10.5"><tspan id="SvgjsTspan2930" style="text-decoration:;">x</tspan></tspan></text></g></g><g id="SvgjsG2931" transform="translate(753,355)"><path id="SvgjsPath2932" d="M 0 0L 20 0L 20 136L 0 136Z" stroke="rgba(76,175,80,1)" stroke-width="2" fill-opacity="1" fill="#81c784"></path><g id="SvgjsG2933"><text id="SvgjsText2934" font-family="微软雅黑" text-anchor="middle" font-size="13px" width="0px" fill="#323232" font-weight="400" align="middle" lineHeight="125%" anchor="middle" family="微软雅黑" size="13px" weight="400" font-style="" opacity="1" y="57.375" transform="rotate(0)"></text></g></g><g id="SvgjsG2935"><path id="SvgjsPath2936" d="M705 423L749.4 423" stroke="#323232" stroke-width="2" fill="none" marker-end="url(#SvgjsMarker2937)"></path></g><g id="SvgjsG2939" transform="translate(245,453)"><path id="SvgjsPath2940" d="M 0 0L 21 0L 21 20L 0 20Z" stroke="none" fill="none"></path><g id="SvgjsG2941"><text id="SvgjsText2942" font-family="微软雅黑" text-anchor="middle" font-size="13px" width="21px" fill="#ffffff" font-weight="700" align="middle" lineHeight="125%" anchor="middle" family="微软雅黑" size="13px" weight="700" font-style="" opacity="1" y="-0.625" transform="rotate(0)"><tspan id="SvgjsTspan2943" dy="16" x="10.5"><tspan id="SvgjsTspan2944" style="text-decoration:;">x</tspan></tspan></text></g></g><g id="SvgjsG2945" transform="translate(753,413)"><path id="SvgjsPath2946" d="M 0 0L 21 0L 21 20L 0 20Z" stroke="none" fill="none"></path><g id="SvgjsG2947"><rect id="SvgjsRect2948" width="21" height="21" transform="translate(0,-0.5)" fill="url(#SvgjsPattern2949)"></rect></g></g><g id="SvgjsG2951"><path id="SvgjsPath2952" d="M341.25 254.5L341.25 234.8" stroke="#323232" stroke-width="1" fill="none" marker-end="url(#SvgjsMarker2953)"></path></g><g id="SvgjsG2955"><path id="SvgjsPath2956" d="M669 306.5L669 287.3" stroke="#323232" stroke-width="1" fill="none" marker-end="url(#SvgjsMarker2957)"></path></g><g id="SvgjsG2959"><path id="SvgjsPath2960" d="M209 423L229.7 423" stroke="#323232" stroke-width="1" fill="none" marker-end="url(#SvgjsMarker2961)"></path></g><g id="SvgjsG2963" transform="translate(34,365.75)"><path id="SvgjsPath2964" d="M 0 0L 166 0L 166 114.5L 0 114.5Z" stroke="none" fill="url(#SvgjsPattern2965)" opacity="1"></path></g><g id="SvgjsG2967" transform="translate(805.0054347826087,365.49999999999994)"><path id="SvgjsPath2968" d="M 0 0L 175 0L 175 115.00000000000011L 0 115.00000000000011Z" stroke="none" fill="url(#SvgjsPattern2969)" opacity="1"></path></g><g id="SvgjsG2971"><path id="SvgjsPath2972" d="M774 423L802.7054347826088 423" stroke="#323232" stroke-width="1" fill="none" marker-end="url(#SvgjsMarker2973)"></path></g></svg>